<?xml version="1.0" encoding="UTF-8" standalone="no"?>
<!-- Created with Inkscape (http://www.inkscape.org/) -->

<svg
   width="48"
   height="48"
   viewBox="0 0 12.7 12.7"
   version="1.1"
   id="svg5"
   inkscape:version="1.2.1 (9c6d41e410, 2022-07-14)"
   sodipodi:docname="folder.svg"
   xmlns:inkscape="http://www.inkscape.org/namespaces/inkscape"
   xmlns:sodipodi="http://sodipodi.sourceforge.net/DTD/sodipodi-0.dtd"
   xmlns="http://www.w3.org/2000/svg"
   xmlns:svg="http://www.w3.org/2000/svg">
  <sodipodi:namedview
     id="namedview7"
     pagecolor="#505050"
     bordercolor="#636363"
     borderopacity="1"
     inkscape:pageshadow="0"
     inkscape:pageopacity="0"
     inkscape:pagecheckerboard="0"
     inkscape:document-units="px"
     showgrid="false"
     inkscape:showpageshadow="false"
     inkscape:zoom="4.9481481"
     inkscape:cx="38.701348"
     inkscape:cy="17.178144"
     inkscape:window-width="1920"
     inkscape:window-height="1012"
     inkscape:window-x="0"
     inkscape:window-y="32"
     inkscape:window-maximized="1"
     inkscape:current-layer="layer1"
     inkscape:deskcolor="#505050"
     showguides="false"
     inkscape:lockguides="false">
    <sodipodi:guide
       position="20.6781,0.38243"
       orientation="-0.70710477,0.70710879"
       id="guide3746"
       inkscape:locked="false" />
    <sodipodi:guide
       position="23.385383,4.05402"
       orientation="0,-1"
       id="guide3809"
       inkscape:locked="false" />
    <sodipodi:guide
       position="20.52625,0.9430237"
       orientation="1,0"
       id="guide3811"
       inkscape:locked="false" />
  </sodipodi:namedview>
  <defs
     id="defs2" />
  <g
     inkscape:label="Capa 1"
     inkscape:groupmode="layer"
     id="layer1"
     transform="translate(-230.90714,-134.11716)">
    <g
       id="path4368" />
    <g
       id="g8074"
       transform="matrix(0.29728499,0,0,0.29728499,229.718,133.33232)"
       style="stroke-width:0.889999">
      <path
         fill="#ffa000"
         d="M 40,12 H 22 L 18,8 H 8 C 5.8,8 4,9.8 4,12 v 8 h 40 v -4 c 0,-2.2 -1.8,-4 -4,-4 z"
         id="path8062"
         style="stroke-width:0.792098;fill:#f79617" />
      <path
         fill="#ffca28"
         d="M 40,12 H 8 c -2.2,0 -4,1.8 -4,4 v 20 c 0,2.2 1.8,4 4,4 h 32 c 2.2,0 4,-1.8 4,-4 V 16 c 0,-2.2 -1.8,-4 -4,-4 z"
         id="path8064"
         style="stroke-width:0.792098" />
    </g>
  </g>
</svg>
