<?xml version="1.0" encoding="UTF-8" standalone="no"?>
<!-- Created with Inkscape (http://www.inkscape.org/) -->

<svg
   width="325.75589"
   height="65.992706"
   viewBox="0 0 86.189579 17.46057"
   version="1.1"
   id="svg5"
   xmlns="http://www.w3.org/2000/svg"
   xmlns:svg="http://www.w3.org/2000/svg">
  <defs
     id="defs2" />
  <g
     id="layer1"
     transform="translate(-153.67916,-83.66792)">
    <path
       id="path1261"
       style="fill:#3b75f7;fill-opacity:1;stroke-width:0.529167;stroke-linecap:round;stroke-linejoin:round"
       d="m 165.40093,83.66806 v 12.78061 h -2.42879 l -6.37171,-7.75973 v 7.75973 h -2.92127 v 2.51561 c 0,1.19891 0.9653,2.16421 2.16421,2.16421 h 13.13202 c 1.19892,0 2.16421,-0.9653 2.16421,-2.16421 V 85.83226 c 0,-1.19891 -0.96529,-2.1642 -2.16421,-2.1642 z m 11.47682,7.27345 v 9.57565 h 1.26917 v -7.14065 l 5.32939,7.14065 h 1.04076 v -9.57565 h -1.26865 v 7.14065 l -5.32991,-7.14065 z m 18.36218,0.73898 v 1.58698 h -1.14205 v 1.08055 h 1.14205 v 3.98064 c 0,1.4637 0.77394,2.27066 2.13161,2.27066 0.5456,0 1.1038,-0.16393 1.4718,-0.50591 l -0.3803,-0.94413 c -0.2538,0.21887 -0.5966,0.3421 -0.9519,0.3421 -0.67261,0 -1.05319,-0.43777 -1.05319,-1.2175 v -3.92586 h 1.92859 v -1.08055 h -1.92859 v -1.58698 z m -5.35522,1.51825 c -2.01768,0 -3.50212,1.53196 -3.50212,3.69331 0,2.16135 1.48444,3.70727 3.50212,3.70727 2.01758,0 3.4897,-1.54592 3.4897,-3.70727 0,-2.16135 -1.47212,-3.69331 -3.4897,-3.69331 z m 12.95583,0 c -1.9415,0 -3.375,1.54565 -3.375,3.69331 0,2.16135 1.4464,3.70727 3.6163,3.70727 1.1167,0 2.0429,-0.4101 2.652,-1.17615 l -0.6723,-0.84853 c -0.4948,0.58821 -1.1547,0.87591 -1.9415,0.87591 -1.3324,0 -2.2843,-0.84809 -2.4365,-2.12028 h 5.4565 c 0.013,-0.12311 0.025,-0.28743 0.025,-0.39687 h 5e-4 c 0,-2.22975 -1.3833,-3.73466 -3.3248,-3.73466 z m 7.1825,0 c -1.7257,0 -2.8045,0.87551 -2.8045,2.17506 0,2.88636 4.2509,1.47739 4.2509,3.10524 0,0.61557 -0.4695,0.98495 -1.5989,0.98495 -0.8755,0 -1.789,-0.31467 -2.36,-0.75241 l -0.5075,1.03973 c 0.5585,0.47879 1.6619,0.84801 2.7786,0.84801 1.7892,0 2.9063,-0.83444 2.9063,-2.14767 0,-2.81796 -4.2638,-1.42271 -4.2638,-3.13263 0,-0.57454 0.5201,-0.99838 1.586,-0.99838 0.6599,0 1.3329,0.15058 1.942,0.57464 l 0.5198,-1.03973 c -0.5837,-0.41037 -1.5733,-0.65681 -2.4489,-0.65681 z m 7.0683,0 c -2.0176,0 -3.5027,1.53196 -3.5027,3.69331 0,2.16135 1.4851,3.70727 3.5027,3.70727 2.0176,0 3.4892,-1.54592 3.4892,-3.70727 0,-2.16135 -1.4716,-3.69331 -3.4892,-3.69331 z m 19.9858,0 c -1.0659,0 -1.9286,0.42403 -2.4236,1.16272 v -1.09399 h -1.1674 v 7.24969 h 1.2181 v -3.73414 c 0,-1.57313 0.8372,-2.40761 2.1316,-2.40761 1.1547,0 1.8149,0.69762 1.8149,2.12029 v 4.02146 h 1.218 v -4.17184 c 0,-2.13399 -1.1547,-3.14658 -2.7916,-3.14658 z m -16.0775,0.0687 2.4996,7.24969 h 1.1673 l 1.9673,-5.49889 1.9415,5.49889 h 1.1674 l 2.5125,-7.24969 h -1.0914 l -2.005,5.79965 -1.9922,-5.79965 h -1.0278 l -2.0304,5.77226 -1.9544,-5.77226 z m -18.1591,1.03921 c 1.1802,0 2.0305,0.862 2.1575,2.07946 h -4.3145 c 0.1269,-1.23114 0.9896,-2.07946 2.157,-2.07946 z m -12.95583,0.0413 c 1.29426,0 2.25877,0.99826 2.25877,2.54403 0,1.54577 -0.96451,2.5585 -2.25877,2.5585 -1.29436,0 -2.27118,-1.01273 -2.27118,-2.5585 0,-1.54577 0.97682,-2.54403 2.27118,-2.54403 z m 27.20663,0 c 1.2943,0 2.2588,0.99826 2.2588,2.54403 0,1.54577 -0.9645,2.5585 -2.2588,2.5585 -1.2943,0 -2.2717,-1.01273 -2.2717,-2.5585 0,-1.54577 0.9774,-2.54403 2.2717,-2.54403 z" />
    <path
       id="path1263"
       style="fill:#1c1c1c;fill-opacity:1;stroke-width:0.529167;stroke-linecap:round;stroke-linejoin:round"
       d="m 162.47941,88.90763 -1.62678,0.5333 0.41703,0.50901 1.20975,1.47795 v -1.90738 z" />
    <path
       id="path1265"
       style="fill:#fbb954;fill-opacity:1;stroke-width:0.529167;stroke-linecap:round;stroke-linejoin:round"
       d="m 160.48772,83.66792 -2.3983,2.39831 2.48564,3.03547 1.90427,-0.62425 v -4.80953 z" />
  </g>
</svg>
