<?xml version="1.0" encoding="UTF-8" standalone="no"?>
<!-- Created with Inkscape (http://www.inkscape.org/) -->

<svg
   width="202.32515"
   height="40.98761"
   viewBox="0 0 53.531863 10.844638"
   version="1.1"
   id="svg5"
   sodipodi:docname="logoTransMax.svg"
   inkscape:version="1.2.1 (9c6d41e410, 2022-07-14)"
   xmlns:inkscape="http://www.inkscape.org/namespaces/inkscape"
   xmlns:sodipodi="http://sodipodi.sourceforge.net/DTD/sodipodi-0.dtd"
   xmlns="http://www.w3.org/2000/svg"
   xmlns:svg="http://www.w3.org/2000/svg">
  <sodipodi:namedview
     id="namedview2184"
     pagecolor="#ffffff"
     bordercolor="#000000"
     borderopacity="0.25"
     inkscape:showpageshadow="2"
     inkscape:pageopacity="0.0"
     inkscape:pagecheckerboard="0"
     inkscape:deskcolor="#d1d1d1"
     showgrid="false"
     inkscape:zoom="5.7578376"
     inkscape:cx="106.02939"
     inkscape:cy="24.401522"
     inkscape:window-width="1920"
     inkscape:window-height="961"
     inkscape:window-x="0"
     inkscape:window-y="32"
     inkscape:window-maximized="1"
     inkscape:current-layer="svg5" />
  <defs
     id="defs2" />
  <path
     id="path1861"
     style="fill:#ffffff;fill-opacity:0.501961;stroke-width:0.529168;stroke-linecap:round;stroke-linejoin:round"
     d="m 14.408432,4.8461906 v 5.9475264 h 0.788337 V 6.3585921 l 3.310076,4.4351249 h 0.646731 V 4.8461906 h -0.788107 v 4.435125 L 15.05505,4.8461906 Z m 11.404821,0.4590707 v 0.9856215 h -0.709171 v 0.6711346 h 0.709171 v 2.47236 c 0,0.9090906 0.480838,1.4103226 1.323938,1.4103226 0.339004,0 0.685685,-0.101965 0.914132,-0.314258 L 27.816002,9.9440868 c -0.158561,0.1358772 -0.370511,0.2125222 -0.591282,0.2125222 -0.417712,0 -0.654064,-0.271868 -0.654064,-0.7561435 V 6.962132 h 1.1978 V 6.2909974 h -1.1978 V 5.3052613 Z m -3.325657,0.9430025 c -1.253365,0 -2.175745,0.9512514 -2.175745,2.2936352 0,1.3423838 0.92238,2.30303 2.175745,2.30303 1.253136,0 2.166924,-0.9606462 2.166924,-2.30303 0,-1.3423838 -0.913788,-2.2936352 -2.166924,-2.2936352 z m 0,0.7139828 c 0.803689,0 1.402532,0.6201522 1.402532,1.5802252 0,0.9600731 -0.598843,1.5890472 -1.402532,1.5890472 -0.803918,0 -1.41078,-0.6289741 -1.41078,-1.5890472 0,-0.960073 0.606862,-1.5802252 1.41078,-1.5802252 z m 8.046512,-0.7139828 c -1.206163,0 -2.096465,0.9597294 -2.096465,2.2936352 0,1.3423838 0.898551,2.30303 2.246205,2.30303 0.693704,0 1.268717,-0.254912 1.647132,-0.730595 L 31.913497,9.5874392 c -0.307384,0.3652402 -0.71719,0.5435068 -1.205934,0.5435068 -0.827404,0 -1.418915,-0.5266655 -1.513318,-1.3167208 h 3.38947 c 0,-0.07676 0.02635,-0.1783811 0.02635,-0.2463195 h 6.87e-4 c 0,-1.3848882 -0.859368,-2.3196419 -2.065074,-2.3196419 z m -0.03437,0.687976 c 0.01146,-2.291e-4 0.02291,0 0.03437,0 0.732772,0 1.261041,0.5350288 1.339749,1.2912868 h -2.679612 c 0.07791,-0.752821 0.598155,-1.2751328 1.306066,-1.2912868 z m 4.494815,-0.6880905 c -1.071776,0 -1.741995,0.5438504 -1.741995,1.3509763 0,1.7927474 2.64043,0.9175686 2.64043,1.9286241 0,0.3823107 -0.291573,0.6117883 -0.993068,0.6117883 -0.54385,0 -1.111187,-0.1953366 -1.465887,-0.4673191 l -0.315174,0.6458151 c 0.346794,0.297302 1.032365,0.526666 1.725725,0.526666 1.111416,0 1.805006,-0.518303 1.805006,-1.3339063 0,-1.7502429 -2.647991,-0.8836567 -2.647991,-1.9456946 0,-0.3568768 0.322965,-0.6200376 0.984934,-0.6200376 0.409807,0 0.828092,0.093945 1.206278,0.3568768 L 36.515661,6.656123 C 36.153171,6.4013256 35.538632,6.2481493 34.994553,6.2481493 Z m 4.389985,1.145e-4 c -1.253021,0 -2.175172,0.9512514 -2.175172,2.2936352 0,1.3423838 0.922151,2.30303 2.175172,2.30303 1.253251,0 2.167497,-0.9606462 2.167497,-2.30303 0,-1.3423838 -0.914246,-2.2936352 -2.167497,-2.2936352 z m 0,0.7139828 c 0.804033,0 1.403105,0.6201522 1.403105,1.5802252 0,0.9600731 -0.599072,1.5890472 -1.403105,1.5890472 -0.803803,0 -1.41078,-0.6289741 -1.41078,-1.5890472 0,-0.960073 0.606977,-1.5802252 1.41078,-1.5802252 z M 51.797893,6.2481493 c -0.661969,0 -1.197914,0.2632754 -1.505298,0.7222315 v -0.679498 h -0.724867 v 4.5028342 h 0.756373 V 8.4744189 c 0,-0.9771435 0.519906,-1.4954455 1.323938,-1.4954455 0.717191,0 1.127227,0.4334077 1.127227,1.3169498 v 2.4977938 h 0.756602 V 8.202551 c 0,-1.3254278 -0.717306,-1.9544017 -1.733975,-1.9544017 z m -9.985676,0.04239 1.5525,4.5028337 h 0.724981 l 1.221859,-3.4153619 1.205934,3.4153619 h 0.725096 L 48.803221,6.2905391 H 48.124984 L 46.879867,9.8927607 45.642542,6.2905391 H 45.004403 L 43.743132,9.8756902 42.529064,6.2905391 Z" />
  <path
     style="fill:#ffffff;fill-opacity:0.501961;stroke-width:0.529168;stroke-linecap:round;stroke-linejoin:round"
     d="M 7.2801765,2.2770614e-4 V 7.9382446 H 5.7717849 L 1.8141759,3.1186321 V 7.9382446 H 4.4066398e-6 v 1.5624673 c 0,0.7446871 0.5995301033602,1.3442171 1.3439876933602,1.3442171 h 8.156382 c 0.7446869,0 1.3442169,-0.59953 1.3442169,-1.3442171 V 1.3444445 c 0,-0.74468669 -0.59953,-1.34421679386 -1.3442169,-1.34421679386 z"
     id="path1863" />
  <path
     id="path1865"
     style="fill:#ffffff;fill-opacity:0.501961;stroke-width:0.529168;stroke-linecap:round;stroke-linejoin:round"
     d="M 5.466005,3.2545087 4.4552933,3.5857225 4.7142151,3.9019279 5.466005,4.8198403 V 3.6351009 Z" />
  <path
     id="path1867"
     style="fill:#ffffff;fill-opacity:0.501961;stroke-width:0.529168;stroke-linecap:round;stroke-linejoin:round"
     d="M 4.2284503,-1.42824e-6 2.7388477,1.4896012 4.0129494,3.0454236 5.4657759,2.5695115 V -1.4282402e-6 Z" />
</svg>
