<?xml version="1.0" encoding="UTF-8" standalone="no"?>
<!-- Created with Inkscape (http://www.inkscape.org/) -->

<svg
   width="195.0475"
   height="39.513508"
   viewBox="0 0 51.606318 10.454616"
   version="1.1"
   id="svg5"
   sodipodi:docname="logoColor.svg"
   inkscape:version="1.2.1 (9c6d41e410, 2022-07-14)"
   xmlns:inkscape="http://www.inkscape.org/namespaces/inkscape"
   xmlns:sodipodi="http://sodipodi.sourceforge.net/DTD/sodipodi-0.dtd"
   xmlns="http://www.w3.org/2000/svg"
   xmlns:svg="http://www.w3.org/2000/svg">
  <sodipodi:namedview
     id="namedview3742"
     pagecolor="#ffffff"
     bordercolor="#000000"
     borderopacity="0.25"
     inkscape:showpageshadow="2"
     inkscape:pageopacity="0.0"
     inkscape:pagecheckerboard="0"
     inkscape:deskcolor="#d1d1d1"
     showgrid="false"
     showguides="true"
     inkscape:zoom="4.223295"
     inkscape:cx="100.9875"
     inkscape:cy="23.559803"
     inkscape:window-width="1920"
     inkscape:window-height="961"
     inkscape:window-x="0"
     inkscape:window-y="32"
     inkscape:window-maximized="1"
     inkscape:current-layer="svg5" />
  <defs
     id="defs2" />
  <path
     style="fill:#7ac1d3;fill-opacity:1;stroke-width:0.529167;stroke-linecap:round;stroke-linejoin:round"
     d="M 7.0182441,1.320593e-4 V 7.6525461 H 5.5641262 L 1.7489005,3.0063347 V 7.6525461 H 9.4548185e-6 v 1.5062417 c 0,0.7178887 0.5779559951815,1.2958612 1.2956223451815,1.2958612 h 7.862926 c 0.7178969,0 1.2958612,-0.5779725 1.2958612,-1.2958612 V 1.295985 c 0,-0.71789694 -0.5779643,-1.2958529407 -1.2958612,-1.2958529407 z"
     id="path8735"
     inkscape:export-filename="../../../favicon.png"
     inkscape:export-xdpi="96"
     inkscape:export-ydpi="96" />
  <path
     id="path3489"
     style="fill:#7ac1d3;fill-opacity:1;stroke-width:0.529167;stroke-linecap:round;stroke-linejoin:round"
     d="m 13.890023,4.6719689 v 5.7335321 h 0.759972 V 6.1299536 l 3.190978,4.2755474 h 0.623462 V 4.6719689 H 17.704683 V 8.9475165 L 14.513375,4.6719689 Z m 10.99447,0.4425532 v 0.9501585 h -0.683654 v 0.6469869 h 0.683654 V 9.095071 c 0,0.8763813 0.463538,1.359578 1.276303,1.359578 0.326807,0 0.661013,-0.0983 0.881241,-0.302951 L 26.815183,9.5864409 c -0.152856,0.1309878 -0.35718,0.2048755 -0.570007,0.2048755 -0.402683,0 -0.630531,-0.262086 -0.630531,-0.7289371 V 6.7117779 h 1.154703 V 6.064791 H 25.614645 V 5.1145221 Z m -3.206219,0.9089625 c -1.208268,0 -2.09713,0.9173563 -2.09713,2.2114406 0,1.2940843 0.888862,2.2197238 2.09713,2.2197238 1.208048,0 2.089178,-0.9256395 2.089178,-2.2197238 0,-1.2940843 -0.88113,-2.2114406 -2.089178,-2.2114406 z m 7.757438,0 c -1.162766,0 -2.021144,0.9255292 -2.021144,2.2114406 0,1.2940843 0.86611,2.2197238 2.165274,2.2197238 0.668745,0 1.223179,-0.24563 1.587979,-0.7041972 L 30.76547,9.2424047 c -0.296324,0.3520987 -0.691497,0.5243929 -1.162655,0.5243929 -0.797634,0 -1.367751,-0.5078262 -1.458758,-1.269455 h 3.267074 c 0,-0.073998 0.0254,-0.1720734 0.0254,-0.2375673 h 3.31e-4 c 0,-1.3350594 -0.828338,-2.2361803 -1.990661,-2.2361803 z m 4.300287,0 c -1.033213,0 -1.679317,0.5242825 -1.679317,1.3023677 0,1.7282436 2.545427,0.8845541 2.545427,1.8592314 0,0.3685551 -0.281083,0.5897764 -0.957338,0.5897764 -0.524282,0 -1.071206,-0.1883087 -1.413144,-0.4505052 l -0.303834,0.6225786 c 0.334317,0.2866045 0.99522,0.5077155 1.663633,0.5077155 1.071428,0 1.740062,-0.499653 1.740062,-1.2859111 0,-1.6872686 -2.552716,-0.8518625 -2.552716,-1.8756878 0,-0.3440363 0.311344,-0.5977285 0.949496,-0.5977285 0.395062,0 0.798296,0.090565 1.162875,0.3440363 L 35.202377,6.4167793 C 34.852929,6.1711496 34.260502,6.0234846 33.735999,6.0234846 Z m 4.232143,0 c -1.207938,0 -2.09702,0.9173563 -2.09702,2.2114406 0,1.2940843 0.889082,2.2197238 2.09702,2.2197238 1.208158,0 2.089288,-0.9256395 2.089288,-2.2197238 0,-1.2940843 -0.88113,-2.2114406 -2.089288,-2.2114406 z m 11.966607,0 c -0.638151,0 -1.154813,0.2538026 -1.451137,0.6962454 V 6.0646806 h -0.698786 v 4.3408204 h 0.729158 V 8.1696522 c 0,-0.9419856 0.5012,-1.4416388 1.276303,-1.4416388 0.691386,0 1.086669,0.4178135 1.086669,1.2695655 v 2.4079221 h 0.729378 V 7.9075662 c 0,-1.2777385 -0.691496,-1.8840816 -1.671585,-1.8840816 z m -9.626388,0.040865 1.496641,4.3408204 h 0.698896 l 1.177896,-3.2924762 1.162544,3.2924762 h 0.699007 L 47.047827,6.0643492 H 46.393992 L 45.193676,9.5369616 44.00087,6.0643492 h -0.615179 l -1.215889,3.456156 -1.170386,-3.456156 z M 29.435712,6.6865965 c 0.706406,0 1.215558,0.5161096 1.291433,1.2451571 h -2.583088 c 0.07621,-0.7372205 0.592538,-1.2451571 1.291655,-1.2451571 z m -7.757438,0.025402 c 0.774772,0 1.352179,0.5977285 1.352179,1.5232577 0,0.9255293 -0.577407,1.5319829 -1.352179,1.5319829 -0.774992,0 -1.359909,-0.6064536 -1.359909,-1.5319829 0,-0.9255292 0.584917,-1.5232577 1.359909,-1.5232577 z m 16.289868,0 c 0.775103,0 1.35262,0.5977285 1.35262,1.5232577 0,0.9255293 -0.577517,1.5319829 -1.35262,1.5319829 -0.774883,0 -1.36002,-0.6064536 -1.36002,-1.5319829 0,-0.9255292 0.585137,-1.5232577 1.36002,-1.5232577 z"
     sodipodi:nodetypes="ccccccccccccccccssccssccccccssssscssccsccccccssssccssssccssssssscccccsssccssccccccccccccccsccsssssssssss" />
  <path
     id="path8737"
     style="fill:#1c1c1c;fill-opacity:1;stroke-width:0.529167;stroke-linecap:round;stroke-linejoin:round"
     d="M 5.269353,3.1373276 4.295002,3.4566152 4.5446072,3.7614476 5.269353,4.646327 V 3.5042198 Z" />
  <path
     id="path1521"
     style="fill:#fbb954;fill-opacity:1;stroke-width:0.529167;stroke-linecap:round;stroke-linejoin:round"
     d="M 4.0763238,-9.0199804e-5 2.6403077,1.4359177 3.8685774,2.9357633 5.2691225,2.4769711 V -9.0199804e-5 Z" />
</svg>
